<?xml version="1.0" encoding="utf-8"?>
<svg viewBox="238.189 410.695 144.888 30.5" xmlns="http://www.w3.org/2000/svg">
  <path d="M 245.173 433.26 C 245.413 433.26 245.663 433.26 245.913 433.26 C 246.073 433.26 246.233 433.26 246.393 433.26 C 246.503 433.26 246.623 433.27 246.723 433.21 C 246.973 433.08 246.893 432.76 246.643 432.7 C 246.553 432.67 246.443 432.68 246.353 432.68 C 246.023 432.68 245.693 432.68 245.373 432.68 C 245.243 432.68 245.113 432.67 244.993 432.72 C 244.683 432.88 244.863 433.26 245.173 433.26 Z M 247.013 433.83 C 246.803 433.83 246.593 433.83 246.383 433.83 C 246.163 433.83 245.813 433.77 245.653 433.95 C 245.503 434.13 245.643 434.35 245.843 434.4 C 245.923 434.41 246.013 434.41 246.093 434.41 C 246.373 434.41 246.643 434.41 246.913 434.41 C 247.053 434.41 247.203 434.4 247.293 434.28 C 247.473 434.07 247.243 433.83 247.013 433.83 Z M 245.113 432.11 C 245.483 432.11 245.483 431.53 245.113 431.53 C 244.743 431.53 244.743 432.11 245.113 432.11 Z M 245.113 433.83 C 244.743 433.83 244.743 434.41 245.113 434.41 C 245.483 434.41 245.483 433.83 245.113 433.83 Z M 259.693 421.98 C 259.673 420.97 259.523 419.98 259.203 419.02 C 258.823 417.9 258.233 416.85 257.473 415.93 C 255.953 414.11 253.753 412.89 251.393 412.58 C 250.353 412.44 249.293 412.49 248.243 412.49 C 247.423 412.49 246.603 412.53 245.783 412.7 C 244.573 412.95 243.413 413.45 242.393 414.14 C 240.393 415.5 238.953 417.6 238.423 419.96 C 238.143 421.23 238.193 422.52 238.193 423.81 C 238.193 424.78 238.193 425.74 238.193 426.71 C 238.193 427.67 238.193 428.63 238.193 429.58 C 238.193 430.08 238.193 430.58 238.193 431.07 C 238.193 432.28 238.193 433.48 238.193 434.69 C 238.193 436 238.193 437.31 238.193 438.62 C 238.193 439.42 238.193 440.23 238.193 441.03 C 238.193 441.06 238.183 441.16 238.193 441.18 C 238.203 441.19 238.253 441.18 238.263 441.18 C 238.363 441.18 238.463 441.18 238.563 441.18 C 239.153 441.18 239.753 441.18 240.353 441.18 C 241.203 441.18 242.053 441.18 242.913 441.18 C 243.423 441.18 243.943 441.18 244.453 441.18 C 244.523 441.18 244.503 441.2 244.513 441.15 C 244.523 441.07 244.513 440.99 244.513 440.92 C 244.513 440.07 244.513 439.23 244.513 438.38 C 244.513 437.07 244.513 435.77 244.513 434.46 C 244.513 433.21 244.513 431.96 244.513 430.71 C 244.513 430.04 244.513 429.36 244.513 428.69 C 244.513 428.06 244.513 427.43 244.513 426.8 C 244.513 425.55 244.513 424.3 244.513 423.05 C 244.513 422.8 244.513 422.55 244.513 422.3 C 244.513 421.97 244.523 421.65 244.593 421.33 C 244.733 420.73 245.043 420.18 245.483 419.74 C 245.913 419.32 246.463 419.02 247.063 418.89 C 247.363 418.82 247.673 418.81 247.983 418.81 C 248.453 418.81 248.933 418.81 249.403 418.81 C 249.603 418.81 249.793 418.81 249.993 418.81 C 250.473 418.81 250.943 418.88 251.393 419.07 C 252.553 419.56 253.323 420.7 253.373 421.95 C 253.383 422.38 253.373 422.82 253.373 423.25 C 253.373 423.76 253.373 424.26 253.373 424.76 C 253.373 425.19 253.313 425.61 253.153 426.01 C 252.933 426.58 252.553 427.08 252.063 427.45 C 251.583 427.81 250.993 428.03 250.393 428.07 C 250.173 428.09 249.963 428.09 249.743 428.09 C 249.293 428.09 248.843 428.09 248.393 428.09 C 248.133 428.09 247.873 428.09 247.613 428.09 C 247.473 428.09 247.333 428.09 247.193 428.09 C 247.073 428.09 246.953 428.08 246.853 428.15 C 246.653 428.3 246.733 428.57 246.953 428.64 C 247.043 428.67 247.133 428.66 247.213 428.66 C 247.513 428.66 247.803 428.66 248.103 428.66 C 248.243 428.66 248.373 428.66 248.513 428.66 C 248.613 428.66 248.703 428.65 248.803 428.68 C 249.023 428.75 249.143 429 248.923 429.16 C 248.813 429.23 248.693 429.24 248.573 429.24 C 248.083 429.24 247.593 429.24 247.103 429.24 C 246.853 429.24 246.603 429.24 246.353 429.24 C 246.243 429.24 246.123 429.23 246.013 429.24 C 245.833 429.24 245.613 429.36 245.663 429.57 C 245.723 429.86 246.083 429.81 246.293 429.81 C 246.623 429.81 246.953 429.81 247.273 429.81 C 247.663 429.81 248.043 429.81 248.433 429.81 C 248.743 429.81 249.063 429.81 249.383 429.81 C 249.593 429.81 249.993 429.79 249.993 430.1 C 249.993 430.39 249.633 430.38 249.423 430.38 C 249.133 430.38 248.853 430.38 248.563 430.38 C 248.083 430.38 247.603 430.38 247.123 430.38 C 247.013 430.38 246.913 430.38 246.803 430.38 C 246.613 430.38 246.343 430.51 246.423 430.75 C 246.503 430.99 246.783 430.96 246.983 430.96 C 247.593 430.96 248.193 430.96 248.803 430.96 C 248.983 430.96 249.173 430.96 249.353 430.96 C 249.433 430.96 249.523 430.96 249.603 430.96 C 249.803 430.96 250.103 431.12 249.963 431.36 C 249.833 431.58 249.513 431.53 249.303 431.53 C 248.973 431.53 248.653 431.53 248.333 431.53 C 248.123 431.53 247.913 431.53 247.703 431.53 C 247.543 431.53 247.353 431.59 247.313 431.77 C 247.263 432 247.513 432.11 247.693 432.11 C 247.943 432.11 248.193 432.1 248.433 432.11 C 248.603 432.11 248.843 432.19 248.843 432.39 C 248.843 432.6 248.603 432.68 248.443 432.68 C 248.173 432.69 247.893 432.68 247.623 432.68 C 247.523 432.68 247.413 432.67 247.313 432.7 C 247.083 432.76 246.983 433.04 247.193 433.19 C 247.303 433.27 247.433 433.26 247.563 433.26 C 247.723 433.26 247.883 433.26 248.043 433.26 C 248.203 433.26 248.373 433.26 248.533 433.26 C 248.833 433.26 249.133 433.26 249.443 433.26 C 249.563 433.26 249.693 433.26 249.803 433.33 C 250.023 433.48 249.923 433.73 249.703 433.81 C 249.513 433.87 249.243 433.83 249.053 433.83 C 248.733 433.83 248.423 433.83 248.113 433.83 C 248.023 433.83 247.943 433.82 247.863 433.84 C 247.643 433.89 247.513 434.16 247.713 434.32 C 247.823 434.42 247.973 434.4 248.113 434.4 C 248.263 434.4 248.413 434.4 248.563 434.4 C 249.623 434.4 250.703 434.45 251.753 434.27 C 254.113 433.86 256.273 432.55 257.723 430.65 C 258.433 429.73 258.973 428.68 259.293 427.57 C 259.583 426.61 259.693 425.62 259.693 424.62 C 259.693 423.74 259.693 422.86 259.693 421.98 Z M 249.703 429.24 C 249.333 429.24 249.333 428.66 249.703 428.66 C 250.083 428.66 250.083 429.24 249.703 429.24 Z M 249.703 432.68 C 249.333 432.68 249.333 432.11 249.703 432.11 C 250.073 432.11 250.073 432.68 249.703 432.68 Z M 250.913 413.43 C 250.943 413.28 251.123 413.21 251.263 413.23 C 251.483 413.25 251.703 413.29 251.913 413.34 C 252.083 413.37 252.273 413.4 252.433 413.46 C 252.553 413.5 252.673 413.62 252.643 413.76 C 252.623 413.92 252.443 413.99 252.303 413.96 C 252.093 413.93 251.883 413.86 251.673 413.82 C 251.503 413.79 251.333 413.78 251.163 413.75 C 251.023 413.71 250.883 413.59 250.913 413.43 Z M 251.273 415.49 C 251.653 415.55 252.053 415.64 252.413 415.79 C 252.543 415.84 252.673 415.98 252.623 416.13 C 252.583 416.28 252.413 416.33 252.273 416.3 C 252.083 416.25 251.893 416.17 251.693 416.12 C 251.513 416.07 251.333 416.05 251.153 416 C 251.013 415.96 250.883 415.83 250.923 415.68 C 250.953 415.53 251.133 415.46 251.273 415.49 Z M 250.423 413.16 C 250.793 413.17 250.723 413.75 250.363 413.68 C 250.053 413.63 250.103 413.16 250.423 413.16 Z M 249.563 417.03 C 249.223 417.03 249.223 416.51 249.563 416.51 C 249.893 416.51 249.903 417.03 249.563 417.03 Z M 249.653 414.8 C 249.543 414.8 249.423 414.78 249.353 414.68 C 249.273 414.58 249.283 414.45 249.383 414.36 C 249.493 414.26 249.643 414.27 249.793 414.27 C 249.963 414.27 250.143 414.27 250.323 414.28 C 250.443 414.28 250.573 414.27 250.673 414.32 C 250.783 414.38 250.863 414.49 250.823 414.61 C 250.743 414.9 250.303 414.8 250.083 414.8 C 249.943 414.8 249.803 414.8 249.653 414.8 Z M 250.673 415.68 C 250.643 416.01 250.153 415.98 250.143 415.65 C 250.143 415.31 250.703 415.33 250.673 415.68 Z M 250.153 416.59 C 250.303 416.47 250.593 416.52 250.773 416.54 C 250.963 416.57 251.153 416.6 251.343 416.64 C 251.473 416.67 251.623 416.7 251.703 416.81 C 251.783 416.93 251.743 417.08 251.623 417.16 C 251.463 417.25 251.293 417.16 251.133 417.13 C 250.943 417.1 250.753 417.06 250.563 417.06 C 250.473 417.05 250.353 417.06 250.263 417.02 C 250.073 416.96 249.983 416.73 250.153 416.59 Z M 253.903 421.04 C 253.503 419.52 252.103 418.28 250.513 418.17 C 250.343 418.16 250.103 418.07 250.153 417.84 C 250.213 417.57 250.583 417.64 250.773 417.67 C 250.973 417.7 251.163 417.75 251.363 417.8 C 252.193 418.01 252.953 418.53 253.503 419.18 C 253.863 419.61 254.133 420.09 254.323 420.62 C 254.363 420.72 254.403 420.83 254.413 420.94 C 254.433 421.08 254.383 421.25 254.223 421.28 C 254.073 421.31 253.933 421.18 253.903 421.04 Z M 254.293 422.04 C 254.163 422.03 254.033 421.93 254.023 421.79 C 254.013 421.64 254.153 421.51 254.293 421.51 C 254.623 421.51 254.623 422.04 254.293 422.04 Z M 255.673 422.59 C 255.683 422.72 255.643 422.86 255.513 422.92 C 255.373 422.99 255.233 422.9 255.173 422.77 C 255.113 422.62 255.153 422.41 255.153 422.25 C 255.153 421.83 255.123 421.4 255.033 420.99 C 254.893 420.32 254.613 419.69 254.213 419.14 C 253.893 418.68 253.493 418.3 253.043 417.96 C 252.793 417.77 252.513 417.63 252.223 417.49 C 252.133 417.45 252.033 417.39 251.983 417.29 C 251.913 417.13 252.013 416.97 252.183 416.95 C 252.353 416.93 252.543 417.06 252.683 417.13 C 252.813 417.19 252.923 417.26 253.043 417.34 C 253.963 417.89 254.693 418.73 255.153 419.69 C 255.393 420.21 255.543 420.76 255.623 421.32 C 255.683 421.67 255.673 422.02 255.673 422.37 C 255.673 422.45 255.673 422.52 255.673 422.59 Z M 255.723 419.34 C 255.593 419.29 255.543 419.15 255.473 419.03 C 255.393 418.89 255.303 418.74 255.203 418.6 C 255.013 418.33 254.803 418.07 254.583 417.83 C 254.133 417.35 253.603 416.96 253.033 416.64 C 252.933 416.59 252.853 416.52 252.823 416.41 C 252.803 416.3 252.853 416.18 252.963 416.14 C 253.113 416.08 253.243 416.16 253.373 416.23 C 253.513 416.31 253.653 416.39 253.783 416.49 C 254.343 416.85 254.843 417.3 255.263 417.81 C 255.503 418.1 255.723 418.41 255.903 418.73 C 255.973 418.85 256.073 418.99 256.063 419.13 C 256.053 419.31 255.893 419.41 255.723 419.34 Z M 256.093 420.61 C 256.053 420.4 255.983 420.2 255.913 420 C 255.873 419.87 255.853 419.72 255.963 419.62 C 256.083 419.51 256.243 419.56 256.333 419.67 C 256.453 419.82 256.493 420.06 256.543 420.24 C 256.603 420.44 256.643 420.65 256.683 420.85 C 256.713 420.98 256.713 421.11 256.613 421.21 C 256.503 421.31 256.343 421.28 256.253 421.16 C 256.133 421.02 256.143 420.78 256.093 420.61 Z M 256.533 422.04 C 256.193 422.03 256.173 421.54 256.503 421.51 C 256.853 421.48 256.883 422.04 256.533 422.04 Z M 256.863 419.35 C 256.573 418.62 256.163 417.94 255.653 417.34 C 254.643 416.17 253.283 415.34 251.773 414.99 C 251.573 414.94 251.153 414.94 251.083 414.69 C 251.043 414.53 251.163 414.4 251.313 414.38 C 251.413 414.36 251.513 414.4 251.613 414.41 C 252.273 414.54 252.923 414.76 253.533 415.05 C 254.933 415.73 256.103 416.83 256.883 418.18 C 257.263 418.84 257.543 419.55 257.713 420.29 C 257.773 420.57 257.823 420.85 257.853 421.14 C 257.873 421.25 257.903 421.39 257.873 421.5 C 257.833 421.65 257.693 421.77 257.533 421.7 C 257.363 421.62 257.363 421.44 257.343 421.28 C 257.263 420.62 257.113 419.97 256.863 419.35 Z M 257.913 422.59 C 257.913 422.72 257.883 422.85 257.763 422.92 C 257.633 422.99 257.493 422.93 257.433 422.81 C 257.353 422.68 257.383 422.48 257.383 422.33 C 257.383 422.21 257.413 422.08 257.523 422.01 C 257.633 421.94 257.773 421.98 257.853 422.09 C 257.943 422.22 257.913 422.43 257.913 422.59 Z M 257.963 419.1 C 257.713 418.45 257.403 417.84 257.003 417.27 C 256.183 416.1 255.073 415.16 253.793 414.52 C 253.613 414.43 253.423 414.35 253.233 414.28 C 253.103 414.22 252.953 414.18 252.883 414.03 C 252.833 413.89 252.913 413.75 253.053 413.71 C 253.223 413.66 253.443 413.79 253.593 413.85 C 253.763 413.92 253.933 414 254.093 414.08 C 255.473 414.8 256.693 415.82 257.543 417.13 C 257.723 417.4 257.883 417.67 258.033 417.96 C 258.133 418.15 258.223 418.34 258.313 418.54 C 258.393 418.73 258.653 419.21 258.303 419.31 C 258.153 419.35 258.013 419.23 257.963 419.1 Z M 258.413 420.86 C 258.403 420.76 258.393 420.66 258.373 420.56 C 258.333 420.36 258.283 420.15 258.233 419.95 C 258.203 419.83 258.203 419.69 258.303 419.59 C 258.413 419.5 258.553 419.52 258.653 419.62 C 258.773 419.75 258.783 419.97 258.823 420.14 C 258.863 420.35 258.903 420.56 258.933 420.77 C 258.953 420.92 258.983 421.08 258.873 421.19 C 258.753 421.32 258.573 421.27 258.483 421.13 C 258.433 421.05 258.433 420.96 258.413 420.86 Z M 258.763 422.04 C 258.423 422.03 258.413 421.51 258.763 421.51 C 259.093 421.51 259.093 422.04 258.763 422.04 Z M 245.113 429.81 C 245.483 429.81 245.483 429.24 245.113 429.24 C 244.743 429.24 244.743 429.81 245.113 429.81 Z M 245.593 431.82 C 245.593 432.11 245.933 432.11 246.133 432.11 C 246.353 432.11 246.563 432.11 246.783 432.11 C 246.923 432.1 247.083 432.04 247.123 431.88 C 247.173 431.7 247.003 431.56 246.833 431.54 C 246.643 431.51 246.453 431.53 246.263 431.53 C 246.043 431.53 245.593 431.48 245.593 431.82 Z M 246.443 428.5 C 246.543 428.31 246.393 428.13 246.213 428.09 C 246.133 428.08 246.053 428.09 245.973 428.09 C 245.723 428.09 245.473 428.09 245.233 428.09 C 245.083 428.09 244.933 428.12 244.863 428.25 C 244.733 428.47 244.963 428.66 245.173 428.66 C 245.373 428.66 245.573 428.66 245.773 428.66 C 245.983 428.66 246.313 428.72 246.443 428.5 Z M 245.173 430.96 C 245.333 430.96 245.503 430.96 245.663 430.96 C 245.863 430.96 246.163 430.95 246.173 430.68 C 246.183 430.42 245.903 430.38 245.703 430.38 C 245.523 430.38 245.343 430.38 245.173 430.38 C 245.013 430.39 244.843 430.48 244.823 430.65 C 244.803 430.84 245.003 430.96 245.173 430.96 Z M 264.559 431.29 C 264.869 431.29 264.849 430.93 264.849 430.71 C 264.849 430.47 264.859 430.24 264.849 430 C 264.849 429.85 264.779 429.69 264.629 429.65 C 264.419 429.59 264.279 429.8 264.279 429.98 C 264.269 430.18 264.279 430.38 264.279 430.58 C 264.279 430.81 264.209 431.29 264.559 431.29 Z M 265.999 429.41 C 265.999 429.04 265.429 429.04 265.429 429.41 C 265.429 429.78 265.999 429.78 265.999 429.41 Z M 286.569 430.22 C 287.049 429.44 287.399 428.55 287.549 427.64 C 287.649 427 287.689 426.36 287.689 425.71 C 287.689 424.95 287.689 424.19 287.689 423.43 C 287.659 422.44 287.549 421.47 287.279 420.51 C 286.989 419.47 286.539 418.47 285.949 417.56 C 284.809 415.8 283.159 414.38 281.239 413.52 C 280.319 413.12 279.339 412.82 278.349 412.7 C 277.759 412.62 277.179 412.59 276.589 412.59 C 275.969 412.59 275.359 412.58 274.749 412.64 C 273.619 412.75 272.499 413.03 271.439 413.46 C 269.519 414.25 267.819 415.58 266.579 417.24 C 265.349 418.89 264.599 420.83 264.349 422.87 C 264.239 423.77 264.279 424.69 264.279 425.6 C 264.279 426.45 264.279 427.31 264.279 428.17 C 264.279 428.4 264.279 428.64 264.279 428.88 C 264.279 428.97 264.269 429.07 264.299 429.16 C 264.349 429.35 264.579 429.46 264.739 429.31 C 264.889 429.17 264.849 428.92 264.849 428.73 C 264.849 428.45 264.849 428.17 264.849 427.88 C 264.849 427.69 264.809 427.43 264.929 427.26 C 265.049 427.09 265.259 427.11 265.359 427.29 C 265.419 427.39 265.429 427.5 265.429 427.61 C 265.429 427.88 265.429 428.14 265.429 428.41 C 265.429 428.51 265.419 428.6 265.469 428.7 C 265.549 428.88 265.779 428.93 265.919 428.76 C 266.019 428.64 265.999 428.46 265.999 428.3 C 265.999 428.06 265.999 427.83 265.999 427.59 C 265.999 427.06 265.999 426.52 265.999 425.98 C 265.999 425.82 265.979 425.65 266.059 425.51 C 266.159 425.33 266.379 425.31 266.499 425.48 C 266.589 425.61 266.569 425.78 266.569 425.93 C 266.569 426.14 266.569 426.35 266.569 426.57 C 266.569 426.64 266.569 426.72 266.569 426.8 C 266.579 426.98 266.699 427.19 266.909 427.15 C 267.189 427.09 267.149 426.75 267.149 426.54 C 267.149 426.27 267.149 425.99 267.149 425.71 C 267.149 425.56 267.139 425.39 267.149 425.24 C 267.149 425.07 267.259 424.79 267.479 424.85 C 267.659 424.9 267.719 425.15 267.719 425.3 C 267.739 425.76 267.719 426.22 267.719 426.67 C 267.719 426.83 267.689 427.04 267.749 427.2 C 267.809 427.39 268.039 427.48 268.199 427.32 C 268.289 427.23 268.299 427.11 268.299 426.99 C 268.299 426.75 268.299 426.5 268.299 426.26 C 268.299 426.04 268.249 425.74 268.409 425.57 C 268.559 425.41 268.759 425.51 268.839 425.69 C 268.889 425.82 268.869 425.97 268.869 426.1 C 268.869 426.27 268.939 426.47 269.129 426.49 C 269.329 426.51 269.439 426.31 269.449 426.14 C 269.459 425.7 269.449 425.25 269.449 424.8 C 269.449 424.7 269.449 424.6 269.489 424.51 C 269.579 424.33 269.789 424.27 269.929 424.44 C 270.039 424.57 270.019 424.74 270.019 424.9 C 270.029 425.08 270.149 425.29 270.359 425.25 C 270.669 425.18 270.599 424.73 270.599 424.5 C 270.599 424.33 270.599 424.15 270.599 423.98 C 270.619 423.12 270.879 422.27 271.309 421.53 C 271.809 420.68 272.539 419.97 273.419 419.51 C 274.199 419.1 275.059 418.91 275.939 418.91 C 276.479 418.91 277.029 418.88 277.549 418.97 C 278.619 419.14 279.599 419.7 280.299 420.53 C 280.959 421.31 281.339 422.31 281.359 423.34 C 281.369 423.7 281.369 424.06 281.369 424.42 C 281.369 424.86 281.369 425.29 281.369 425.72 C 281.369 425.97 281.369 426.22 281.339 426.47 C 281.279 426.88 281.039 427.18 280.679 427.4 C 280.259 427.67 279.759 427.82 279.269 427.93 C 278.799 428.03 278.319 428.08 277.839 428.09 C 277.599 428.09 277.359 428.09 277.119 428.09 C 276.019 428.09 274.929 428.09 273.829 428.09 C 273.169 428.09 272.509 428.09 271.849 428.09 C 271.469 428.09 271.089 428.08 270.709 428.09 C 269.709 428.14 268.739 428.36 267.849 428.82 C 265.979 429.79 264.659 431.63 264.349 433.72 C 264.219 434.61 264.279 435.52 264.279 436.42 C 264.279 437.16 264.279 437.91 264.279 438.65 C 264.279 439.22 264.279 439.78 264.279 440.34 C 264.279 440.53 264.279 440.73 264.279 440.93 C 264.279 440.99 264.279 441.04 264.279 441.1 C 264.279 441.11 264.269 441.17 264.279 441.18 C 264.289 441.19 264.329 441.18 264.349 441.18 C 264.429 441.18 264.509 441.18 264.599 441.18 C 264.869 441.18 265.139 441.18 265.419 441.18 C 265.799 441.18 266.189 441.18 266.579 441.18 C 267.419 441.18 268.249 441.18 269.079 441.18 C 269.549 441.18 270.009 441.18 270.479 441.18 C 270.499 441.18 270.579 441.2 270.589 441.18 C 270.599 441.18 270.589 441.17 270.599 441.15 C 270.619 441.05 270.599 440.91 270.599 440.8 C 270.599 439.72 270.599 438.65 270.599 437.57 C 270.599 436.86 270.599 436.15 270.599 435.43 C 270.599 435.26 270.599 435.09 270.599 434.91 C 270.599 434.83 270.589 434.75 270.599 434.67 C 270.619 434.5 270.739 434.41 270.899 434.41 C 271.259 434.39 271.619 434.41 271.979 434.41 C 272.689 434.41 273.409 434.41 274.119 434.41 C 275.189 434.41 276.259 434.41 277.339 434.41 C 277.589 434.41 277.849 434.41 278.099 434.4 C 279.199 434.38 280.299 434.21 281.359 433.92 C 283.459 433.33 285.419 432.12 286.569 430.22 Z M 265.139 426.76 C 264.769 426.76 264.769 426.19 265.139 426.19 C 265.509 426.19 265.509 426.76 265.139 426.76 Z M 268.589 425.11 C 268.219 425.11 268.219 424.53 268.589 424.53 C 268.959 424.53 268.959 425.11 268.589 425.11 Z M 270.309 427.61 C 270.679 427.61 270.679 427.04 270.309 427.04 C 269.939 427.04 269.939 427.61 270.309 427.61 Z M 269.449 427.44 C 269.449 427.31 269.449 427.18 269.449 427.05 C 269.449 426.86 269.309 426.61 269.069 426.7 C 268.889 426.77 268.869 426.97 268.869 427.14 C 268.869 427.29 268.839 427.48 268.919 427.62 C 269.079 427.93 269.449 427.73 269.449 427.44 Z M 270.599 425.85 C 270.589 425.7 270.519 425.54 270.359 425.51 C 270.209 425.47 270.079 425.59 270.039 425.73 C 269.989 425.88 270.019 426.1 270.019 426.26 C 270.019 426.47 269.999 426.85 270.309 426.85 C 270.589 426.85 270.599 426.54 270.599 426.33 C 270.599 426.17 270.599 426.01 270.599 425.85 Z M 266.839 428.74 C 267.029 428.76 267.149 428.56 267.149 428.39 C 267.149 428.23 267.149 428.06 267.149 427.9 C 267.149 427.7 267.139 427.4 266.869 427.39 C 266.609 427.38 266.569 427.67 266.569 427.86 C 266.569 428.04 266.569 428.22 266.569 428.39 C 266.579 428.55 266.669 428.72 266.839 428.74 Z M 268.299 427.88 C 268.299 427.51 267.719 427.51 267.719 427.88 C 267.719 428.25 268.299 428.25 268.299 427.88 Z M 287.399 430.12 C 287.089 430.12 287.109 430.49 287.109 430.7 C 287.109 430.94 287.109 431.18 287.109 431.41 C 287.109 431.56 287.179 431.72 287.329 431.76 C 287.539 431.82 287.679 431.61 287.689 431.43 C 287.689 431.23 287.689 431.03 287.689 430.83 C 287.689 430.6 287.749 430.12 287.399 430.12 Z M 285.959 432 C 285.959 432.37 286.539 432.37 286.539 432 C 286.539 431.63 285.959 431.63 285.959 432 Z M 287.689 441.06 C 287.689 441 287.689 440.94 287.689 440.87 C 287.689 440.07 287.689 439.26 287.689 438.45 C 287.689 438.03 287.689 437.61 287.689 437.19 C 287.689 436.3 287.689 435.4 287.689 434.51 C 287.689 434.04 287.689 433.58 287.689 433.11 C 287.689 432.91 287.689 432.7 287.689 432.49 C 287.689 432.3 287.649 432.03 287.399 432.03 C 287.159 432.03 287.109 432.28 287.109 432.47 C 287.109 432.65 287.109 432.83 287.109 433.01 C 287.109 433.22 287.109 433.44 287.109 433.66 C 287.109 433.81 287.129 433.98 287.059 434.11 C 286.989 434.24 286.839 434.33 286.709 434.24 C 286.579 434.17 286.539 434.02 286.539 433.88 C 286.529 433.71 286.539 433.54 286.539 433.37 C 286.539 433.21 286.539 433.05 286.539 432.89 C 286.529 432.75 286.459 432.6 286.309 432.56 C 286.159 432.51 286.019 432.63 285.979 432.77 C 285.949 432.86 285.959 432.97 285.959 433.06 C 285.959 433.23 285.959 433.4 285.959 433.57 C 285.959 434.02 285.959 434.47 285.959 434.92 C 285.959 435.17 285.969 435.42 285.959 435.67 C 285.959 435.82 285.889 436.01 285.719 436.05 C 285.569 436.09 285.449 435.95 285.409 435.81 C 285.359 435.66 285.389 435.49 285.389 435.33 C 285.389 435.13 285.389 434.94 285.389 434.74 C 285.389 434.65 285.379 434.56 285.339 434.47 C 285.259 434.34 285.089 434.28 284.959 434.37 C 284.799 434.48 284.809 434.66 284.809 434.83 C 284.809 435.04 284.809 435.25 284.809 435.46 C 284.809 435.76 284.819 436.07 284.809 436.37 C 284.809 436.52 284.739 436.72 284.579 436.75 C 284.419 436.79 284.319 436.63 284.269 436.5 C 284.229 436.37 284.239 436.22 284.239 436.09 C 284.239 435.66 284.239 435.24 284.239 434.81 C 284.239 434.68 284.259 434.53 284.189 434.41 C 284.109 434.27 283.939 434.22 283.809 434.31 C 283.689 434.39 283.669 434.52 283.659 434.65 C 283.659 435.01 283.659 435.36 283.659 435.72 C 283.659 435.9 283.669 436.15 283.459 436.23 C 283.309 436.29 283.179 436.18 283.129 436.05 C 283.079 435.94 283.089 435.83 283.089 435.72 C 283.079 435.57 282.999 435.4 282.839 435.37 C 282.679 435.35 282.559 435.48 282.529 435.62 C 282.499 435.75 282.519 435.89 282.519 436.02 C 282.519 436.4 282.519 436.79 282.519 437.18 C 282.509 437.28 282.499 437.38 282.439 437.46 C 282.349 437.59 282.189 437.63 282.069 437.52 C 281.899 437.37 281.939 437.1 281.939 436.89 C 281.939 436.69 281.979 436.4 281.739 436.3 C 281.589 436.25 281.449 436.35 281.389 436.48 C 281.359 436.58 281.369 436.7 281.369 436.8 C 281.369 437.4 281.369 438 281.369 438.6 C 281.369 439.34 281.369 440.07 281.369 440.81 C 281.369 440.88 281.369 440.95 281.369 441.03 C 281.369 441.06 281.359 441.12 281.369 441.16 C 281.369 441.18 281.359 441.17 281.379 441.19 C 281.389 441.2 281.469 441.19 281.489 441.19 C 281.879 441.19 282.279 441.19 282.669 441.19 C 283.209 441.19 283.749 441.19 284.299 441.19 C 285.059 441.19 285.819 441.19 286.589 441.19 C 286.919 441.19 287.249 441.19 287.579 441.19 C 287.619 441.19 287.669 441.2 287.689 441.17 C 287.699 441.15 287.689 441.09 287.689 441.06 Z M 283.379 437.26 C 283.009 437.26 283.009 436.69 283.379 436.69 C 283.749 436.69 283.749 437.26 283.379 437.26 Z M 286.819 435.23 C 286.449 435.23 286.449 434.65 286.819 434.65 C 287.189 434.65 287.189 435.23 286.819 435.23 Z M 281.369 434.75 C 281.369 435.12 281.939 435.12 281.939 434.75 C 281.939 434.38 281.369 434.38 281.369 434.75 Z M 282.569 434.22 C 282.489 434.36 282.519 434.54 282.519 434.68 C 282.519 434.88 282.529 435.18 282.799 435.18 C 283.019 435.18 283.089 434.95 283.089 434.77 C 283.089 434.63 283.109 434.46 283.079 434.32 C 283.009 434.07 282.709 433.99 282.569 434.22 Z M 281.679 435.23 C 281.459 435.2 281.359 435.44 281.369 435.62 C 281.369 435.79 281.419 436.01 281.629 436.04 C 281.849 436.06 281.939 435.83 281.939 435.65 C 281.939 435.47 281.889 435.25 281.679 435.23 Z M 285.099 434.09 C 285.359 434.09 285.389 433.8 285.389 433.6 C 285.389 433.43 285.389 433.26 285.389 433.08 C 285.379 432.94 285.309 432.78 285.149 432.74 C 284.999 432.71 284.869 432.83 284.829 432.96 C 284.779 433.12 284.809 433.33 284.809 433.5 C 284.809 433.71 284.789 434.09 285.099 434.09 Z M 283.659 433.79 C 283.659 434.16 284.239 434.16 284.239 433.79 C 284.239 433.42 283.659 433.42 283.659 433.79 Z M 299.402 440.04 C 299.652 440.04 299.892 440.04 300.142 440.04 C 300.302 440.04 300.462 440.04 300.622 440.04 C 300.742 440.04 300.852 440.05 300.962 439.99 C 301.202 439.86 301.132 439.54 300.882 439.48 C 300.792 439.45 300.682 439.46 300.582 439.46 C 300.262 439.46 299.932 439.46 299.602 439.46 C 299.482 439.46 299.342 439.45 299.232 439.5 C 298.912 439.66 299.092 440.04 299.402 440.04 Z M 301.252 440.61 C 301.032 440.61 300.822 440.61 300.612 440.61 C 300.402 440.61 300.042 440.55 299.892 440.73 C 299.742 440.91 299.882 441.13 300.082 441.17 C 300.152 441.19 300.252 441.18 300.332 441.18 C 300.602 441.18 300.872 441.18 301.152 441.18 C 301.292 441.18 301.432 441.18 301.532 441.06 C 301.712 440.85 301.482 440.61 301.252 440.61 Z M 299.822 438.6 C 299.822 438.89 300.162 438.89 300.372 438.89 C 300.582 438.89 300.802 438.89 301.012 438.89 C 301.152 438.88 301.312 438.81 301.352 438.66 C 301.402 438.48 301.232 438.34 301.062 438.32 C 300.882 438.29 300.682 438.31 300.502 438.31 C 300.272 438.31 299.822 438.26 299.822 438.6 Z M 299.342 438.89 C 299.712 438.89 299.712 438.31 299.342 438.31 C 298.972 438.31 298.972 438.89 299.342 438.89 Z M 299.342 440.61 C 298.972 440.61 298.972 441.18 299.342 441.18 C 299.712 441.18 299.712 440.61 299.342 440.61 Z M 315.682 425.63 C 315.682 425.09 315.682 424.55 315.682 424 C 315.672 422.37 315.302 420.74 314.622 419.26 C 313.992 417.88 313.082 416.62 311.972 415.58 C 310.892 414.57 309.622 413.77 308.242 413.23 C 306.932 412.72 305.562 412.47 304.172 412.43 C 303.802 412.42 303.432 412.43 303.062 412.43 C 302.432 412.43 301.802 412.43 301.172 412.43 C 300.352 412.43 299.522 412.43 298.702 412.43 C 298.152 412.43 297.612 412.43 297.062 412.43 C 296.672 412.43 296.272 412.43 295.882 412.43 C 295.302 412.43 294.722 412.43 294.142 412.43 C 293.572 412.43 292.992 412.43 292.412 412.43 C 292.382 412.43 292.352 412.43 292.322 412.43 C 292.272 412.44 292.282 412.43 292.272 412.47 C 292.262 412.53 292.272 412.59 292.272 412.65 C 292.272 412.82 292.272 412.98 292.272 413.15 C 292.272 413.28 292.272 413.4 292.272 413.53 C 292.272 414.15 292.272 414.78 292.272 415.41 C 292.272 416.21 292.272 417.02 292.272 417.82 C 292.272 418.16 292.272 418.5 292.272 418.84 C 292.272 418.98 292.272 419.13 292.272 419.28 C 292.272 419.64 292.272 420 292.272 420.36 C 292.272 420.9 292.272 421.43 292.272 421.97 C 292.272 422.64 292.272 423.31 292.272 423.98 C 292.272 424.75 292.272 425.51 292.272 426.28 C 292.272 427.11 292.272 427.94 292.272 428.76 C 292.272 429.61 292.272 430.45 292.272 431.29 C 292.272 432.12 292.272 432.94 292.272 433.77 C 292.272 434.53 292.272 435.29 292.272 436.06 C 292.272 436.73 292.272 437.4 292.272 438.07 C 292.272 438.6 292.272 439.13 292.272 439.66 C 292.272 440.02 292.272 440.37 292.272 440.73 C 292.272 440.83 292.272 440.93 292.272 441.03 C 292.272 441.05 292.262 441.14 292.272 441.15 C 292.282 441.16 292.352 441.16 292.372 441.16 C 292.502 441.16 292.642 441.16 292.782 441.16 C 293.182 441.16 293.582 441.16 293.982 441.16 C 294.402 441.16 294.822 441.16 295.242 441.16 C 295.942 441.16 296.632 441.16 297.332 441.16 C 297.662 441.16 298.002 441.16 298.342 441.16 C 298.382 441.16 298.572 441.18 298.592 441.15 C 298.612 441.12 298.592 441.02 298.592 440.99 C 298.592 440.88 298.592 440.78 298.592 440.67 C 298.592 440.3 298.592 439.92 298.592 439.55 C 298.592 439.01 298.592 438.47 298.592 437.93 C 298.592 437.25 298.592 436.57 298.592 435.89 C 298.592 435.12 298.592 434.35 298.592 433.57 C 298.592 432.75 298.592 431.92 298.592 431.1 C 298.592 430.25 298.592 429.41 298.592 428.56 C 298.592 427.74 298.592 426.91 298.592 426.09 C 298.592 425.33 298.592 424.57 298.592 423.81 C 298.592 423.15 298.592 422.49 298.592 421.82 C 298.592 421.3 298.592 420.78 298.592 420.25 C 298.592 419.91 298.592 419.57 298.592 419.22 C 298.592 419.09 298.592 418.96 298.592 418.83 C 298.592 418.75 298.572 418.75 298.642 418.75 C 298.722 418.74 298.802 418.75 298.882 418.75 C 299.182 418.75 299.482 418.75 299.782 418.75 C 300.592 418.75 301.402 418.75 302.212 418.75 C 302.622 418.75 303.042 418.75 303.452 418.75 C 303.812 418.75 304.162 418.74 304.512 418.77 C 305.272 418.84 306.022 419.08 306.682 419.47 C 307.992 420.24 308.972 421.57 309.262 423.07 C 309.412 423.83 309.362 424.61 309.362 425.38 C 309.362 425.89 309.362 426.39 309.362 426.9 C 309.362 427.6 309.362 428.31 309.362 429.02 C 309.362 429.25 309.372 429.48 309.362 429.71 C 309.332 430.48 309.132 431.25 308.782 431.93 C 308.082 433.29 306.812 434.32 305.342 434.7 C 304.622 434.88 303.892 434.87 303.152 434.87 C 302.582 434.87 302.012 434.87 301.442 434.87 C 301.282 434.87 301.112 434.86 301.012 435.01 C 300.932 435.12 300.962 435.27 301.062 435.36 C 301.152 435.43 301.252 435.44 301.362 435.44 C 301.662 435.44 301.962 435.44 302.272 435.44 C 302.442 435.44 302.612 435.44 302.772 435.44 C 302.932 435.44 303.102 435.44 303.212 435.57 C 303.422 435.81 303.102 436.01 302.882 436.01 C 302.762 436.02 302.652 436.01 302.532 436.01 C 301.942 436.01 301.352 436.01 300.752 436.01 C 300.592 436.01 300.422 436.01 300.252 436.01 C 300.042 436.02 299.772 436.21 299.932 436.45 C 300.032 436.58 300.182 436.59 300.332 436.59 C 300.492 436.59 300.662 436.59 300.822 436.59 C 301.372 436.59 301.912 436.59 302.462 436.59 C 302.852 436.59 303.232 436.59 303.622 436.59 C 303.702 436.59 303.782 436.58 303.872 436.59 C 304.012 436.6 304.172 436.68 304.192 436.84 C 304.222 436.99 304.102 437.11 303.962 437.15 C 303.872 437.17 303.782 437.16 303.692 437.16 C 303.542 437.16 303.392 437.16 303.252 437.16 C 302.842 437.16 302.432 437.16 302.022 437.16 C 301.802 437.16 301.582 437.16 301.352 437.16 C 301.212 437.16 301.042 437.14 300.902 437.17 C 300.582 437.25 300.572 437.64 300.882 437.72 C 300.962 437.75 301.052 437.74 301.142 437.74 C 301.282 437.74 301.432 437.74 301.572 437.74 C 301.982 437.74 302.382 437.74 302.792 437.74 C 303.052 437.74 303.312 437.74 303.572 437.74 C 303.692 437.74 303.832 437.72 303.942 437.75 C 304.082 437.78 304.232 437.88 304.232 438.03 C 304.222 438.18 304.072 438.27 303.942 438.3 C 303.852 438.32 303.752 438.31 303.652 438.31 C 303.472 438.31 303.302 438.31 303.122 438.31 C 302.762 438.31 302.402 438.31 302.042 438.31 C 301.922 438.31 301.802 438.3 301.702 438.36 C 301.582 438.42 301.502 438.56 301.552 438.69 C 301.612 438.82 301.752 438.88 301.882 438.89 C 302.172 438.9 302.472 438.85 302.752 438.89 C 302.882 438.91 303.042 438.98 303.072 439.12 C 303.102 439.26 302.992 439.38 302.872 439.43 C 302.742 439.48 302.582 439.46 302.442 439.46 C 302.242 439.46 302.042 439.46 301.852 439.46 C 301.702 439.46 301.532 439.44 301.412 439.55 C 301.162 439.75 301.412 440.03 301.662 440.04 C 301.812 440.04 301.972 440.04 302.132 440.04 C 302.362 440.04 302.602 440.04 302.832 440.04 C 303.152 440.04 303.462 440.03 303.772 440.04 C 303.922 440.04 304.142 440.11 304.192 440.27 C 304.242 440.42 304.072 440.53 303.952 440.58 C 303.832 440.62 303.692 440.61 303.562 440.61 C 303.192 440.61 302.822 440.61 302.452 440.61 C 302.352 440.61 302.242 440.6 302.142 440.61 C 301.832 440.65 301.722 441.03 302.042 441.16 C 302.192 441.22 302.402 441.18 302.562 441.18 C 302.682 441.18 302.812 441.18 302.932 441.18 C 303.242 441.18 303.552 441.18 303.872 441.18 C 304.722 441.18 305.572 441.12 306.412 440.93 C 307.632 440.67 308.802 440.22 309.882 439.59 C 311.212 438.81 312.382 437.77 313.322 436.54 C 314.232 435.33 314.922 433.93 315.302 432.46 C 315.512 431.67 315.632 430.86 315.672 430.04 C 315.682 429.76 315.682 429.48 315.682 429.2 C 315.682 428.47 315.682 427.73 315.682 426.99 C 315.682 426.54 315.682 426.09 315.682 425.63 Z M 304.112 435.92 C 303.922 436.2 303.522 435.83 303.702 435.57 C 303.772 435.46 303.932 435.4 304.052 435.47 C 304.192 435.56 304.202 435.79 304.112 435.92 Z M 304.162 439.36 C 303.912 439.62 303.472 439.28 303.712 438.99 C 303.952 438.7 304.452 439.09 304.162 439.36 Z M 306.572 413.67 C 306.642 413.41 306.942 413.52 307.122 413.57 C 307.252 413.6 307.392 413.65 307.522 413.69 C 307.592 413.72 307.672 413.74 307.732 413.78 C 307.832 413.85 307.882 414 307.802 414.11 C 307.662 414.29 307.392 414.16 307.222 414.1 C 307.032 414.03 306.502 413.98 306.572 413.67 Z M 305.482 413.46 C 305.512 413.22 305.792 413.26 305.962 413.29 C 306.122 413.32 306.372 413.36 306.352 413.59 C 306.332 413.84 306.032 413.79 305.862 413.76 C 305.702 413.73 305.452 413.68 305.482 413.46 Z M 305.032 413.17 C 305.342 413.2 305.292 413.67 304.992 413.64 C 304.682 413.61 304.722 413.14 305.032 413.17 Z M 305.242 417.95 C 305.182 418.27 304.702 418.16 304.782 417.84 C 304.852 417.56 305.302 417.66 305.242 417.95 Z M 305.402 416.84 C 305.372 416.97 305.242 417.03 305.112 417.03 C 304.932 417.02 304.762 416.98 304.582 416.97 C 304.402 416.96 303.952 416.98 304.012 416.67 C 304.042 416.55 304.162 416.48 304.272 416.48 C 304.442 416.46 304.622 416.49 304.792 416.51 C 304.982 416.53 305.462 416.53 305.402 416.84 Z M 304.882 415.63 C 304.912 415.34 305.372 415.39 305.362 415.68 C 305.352 416 304.852 415.96 304.882 415.63 Z M 310.222 423.17 C 309.912 423.21 309.912 422.78 309.852 422.59 C 309.802 422.41 309.762 422.24 309.692 422.07 C 309.502 421.57 309.262 421.09 308.952 420.65 C 308.272 419.66 307.262 418.84 306.122 418.44 C 306.032 418.41 305.932 418.38 305.842 418.35 C 305.742 418.32 305.612 418.3 305.532 418.22 C 305.442 418.13 305.412 417.99 305.512 417.9 C 305.622 417.79 305.792 417.83 305.922 417.87 C 306.302 418 306.682 418.14 307.032 418.33 C 307.812 418.75 308.502 419.31 309.062 419.99 C 309.502 420.52 309.852 421.13 310.092 421.78 C 310.222 422.12 310.372 422.5 310.402 422.87 C 310.422 422.99 310.362 423.15 310.222 423.17 Z M 310.872 422.08 C 310.732 421.51 310.462 420.96 310.162 420.45 C 309.812 419.87 309.382 419.33 308.882 418.87 C 308.172 418.21 307.322 417.67 306.402 417.36 C 306.202 417.29 306.002 417.25 305.812 417.17 C 305.682 417.13 305.582 417 305.632 416.86 C 305.672 416.73 305.822 416.69 305.942 416.72 C 306.262 416.78 306.572 416.91 306.872 417.02 C 307.982 417.46 308.992 418.2 309.772 419.1 C 310.232 419.63 310.632 420.23 310.932 420.87 C 311.032 421.11 311.142 421.35 311.222 421.59 C 311.282 421.76 311.502 422.26 311.152 422.3 C 311.022 422.31 310.912 422.2 310.872 422.08 Z M 305.572 415.74 C 305.612 415.56 305.802 415.54 305.942 415.57 C 306.102 415.61 306.262 415.64 306.412 415.69 C 306.572 415.74 306.732 415.79 306.882 415.84 C 307.002 415.88 307.102 415.95 307.122 416.07 C 307.142 416.23 307.002 416.33 306.862 416.32 C 306.682 416.32 306.502 416.22 306.342 416.17 C 306.172 416.11 306.002 416.08 305.842 416.04 C 305.702 416.01 305.542 415.9 305.572 415.74 Z M 311.302 422.51 C 311.532 422.54 311.552 422.86 311.572 423.04 C 311.592 423.19 311.542 423.4 311.342 423.39 C 311.092 423.38 311.092 423.06 311.062 422.88 C 311.032 422.72 311.102 422.49 311.302 422.51 Z M 311.402 424.1 C 311.082 424.1 311.102 423.61 311.422 423.62 C 311.712 423.64 311.702 424.1 311.402 424.1 Z M 311.432 420.46 C 311.082 419.75 310.632 419.09 310.092 418.52 C 309.632 418.03 309.142 417.59 308.582 417.22 C 308.402 417.1 308.222 416.99 308.032 416.89 C 307.882 416.81 307.732 416.72 307.572 416.64 C 307.462 416.59 307.352 416.55 307.312 416.42 C 307.282 416.31 307.342 416.19 307.452 416.15 C 307.602 416.1 307.752 416.2 307.882 416.26 C 308.062 416.36 308.252 416.45 308.432 416.56 C 308.732 416.75 309.032 416.94 309.312 417.16 C 309.852 417.57 310.352 418.04 310.772 418.57 C 310.962 418.81 311.142 419.06 311.322 419.31 C 311.462 419.53 311.592 419.75 311.722 419.98 C 311.782 420.09 311.872 420.22 311.892 420.35 C 311.902 420.47 311.842 420.6 311.712 420.63 C 311.592 420.65 311.482 420.56 311.432 420.46 Z M 312.032 422.12 C 311.972 421.87 311.902 421.63 311.812 421.38 C 311.752 421.21 311.622 420.92 311.852 420.82 C 312.102 420.72 312.192 421.01 312.252 421.18 C 312.332 421.41 312.402 421.64 312.462 421.87 C 312.502 422.02 312.562 422.21 312.412 422.31 C 312.262 422.42 312.072 422.28 312.032 422.12 Z M 312.452 423.03 C 312.132 423.07 312.082 422.58 312.402 422.56 C 312.692 422.54 312.752 423 312.452 423.03 Z M 313.022 421.45 C 312.622 420.07 311.882 418.79 310.912 417.74 C 309.622 416.35 307.912 415.35 306.052 414.94 C 305.482 414.81 304.902 414.74 304.322 414.72 C 304.162 414.71 303.972 414.61 304.022 414.42 C 304.082 414.19 304.402 414.24 304.582 414.25 C 305.092 414.28 305.612 414.35 306.112 414.46 C 308.062 414.89 309.862 415.91 311.222 417.37 C 311.892 418.09 312.442 418.9 312.882 419.78 C 313.012 420.04 313.122 420.31 313.232 420.59 C 313.292 420.75 313.352 420.92 313.412 421.09 C 313.462 421.24 313.562 421.47 313.412 421.61 C 313.272 421.74 313.062 421.61 313.022 421.45 Z M 313.292 422.69 C 313.282 422.6 313.262 422.5 313.242 422.4 C 313.232 422.31 313.192 422.2 313.202 422.11 C 313.212 421.92 313.412 421.8 313.572 421.93 C 313.672 422.02 313.682 422.15 313.702 422.27 C 313.742 422.46 313.772 422.64 313.792 422.83 C 313.802 422.92 313.822 423.01 313.832 423.1 C 313.842 423.27 313.702 423.48 313.512 423.39 C 313.362 423.33 313.352 423.17 313.342 423.03 C 313.322 422.92 313.312 422.81 313.292 422.69 Z M 313.642 424.1 C 313.312 424.1 313.332 423.6 313.652 423.62 C 313.952 423.64 313.932 424.1 313.642 424.1 Z M 314.732 423.42 C 314.512 423.44 314.482 423.2 314.462 423.04 C 314.442 422.8 314.402 422.57 314.362 422.33 C 314.292 421.91 314.192 421.49 314.072 421.08 C 313.832 420.27 313.482 419.49 313.052 418.76 C 312.122 417.19 310.782 415.87 309.202 414.97 C 308.882 414.79 308.542 414.64 308.212 414.47 C 308.082 414.41 307.952 414.24 308.062 414.09 C 308.192 413.92 308.412 414.04 308.562 414.1 C 309.032 414.32 309.482 414.56 309.922 414.84 C 311.272 415.71 312.422 416.87 313.292 418.23 C 314.202 419.67 314.812 421.37 314.952 423.08 C 314.962 423.22 314.912 423.41 314.732 423.42 Z M 299.342 436.59 C 299.712 436.59 299.712 436.01 299.342 436.01 C 298.972 436.01 298.972 436.59 299.342 436.59 Z M 299.402 437.74 C 299.572 437.74 299.732 437.74 299.892 437.74 C 300.092 437.74 300.392 437.73 300.402 437.46 C 300.422 437.2 300.132 437.16 299.932 437.16 C 299.762 437.16 299.582 437.16 299.402 437.16 C 299.252 437.17 299.082 437.26 299.062 437.42 C 299.042 437.61 299.232 437.74 299.402 437.74 Z M 300.672 435.28 C 300.782 435.09 300.622 434.91 300.442 434.87 C 300.372 434.86 300.282 434.87 300.212 434.87 C 299.962 434.87 299.712 434.87 299.462 434.87 C 299.322 434.87 299.172 434.89 299.092 435.03 C 298.972 435.25 299.192 435.44 299.402 435.44 C 299.602 435.44 299.802 435.44 300.002 435.44 C 300.212 435.44 300.552 435.5 300.672 435.28 Z M 343.795 412.46 C 343.255 412.46 342.705 412.46 342.165 412.46 C 341.415 412.46 340.655 412.46 339.905 412.46 C 339.315 412.46 338.715 412.46 338.115 412.46 C 338.035 412.46 337.955 412.46 337.875 412.46 C 337.845 412.46 337.765 412.45 337.745 412.46 C 337.705 412.48 337.725 412.51 337.725 412.55 C 337.725 412.89 337.725 413.22 337.725 413.56 C 337.725 414.16 337.725 414.76 337.725 415.37 C 337.725 416.11 337.725 416.85 337.725 417.59 C 337.725 418.34 337.715 419.09 337.715 419.85 C 337.715 420.48 337.715 421.11 337.715 421.74 C 337.715 422.12 337.715 422.5 337.715 422.88 C 337.715 422.94 337.725 423 337.715 423.06 C 337.715 423.31 337.605 423.54 337.415 423.71 C 337.235 423.87 337.025 423.93 336.795 423.94 C 336.255 423.96 335.715 423.94 335.175 423.94 C 334.685 423.94 334.195 423.94 333.705 423.94 C 333.265 423.94 332.835 423.94 332.395 423.94 C 331.745 423.94 331.105 423.94 330.455 423.94 C 330.015 423.94 329.565 423.94 329.125 423.94 C 328.615 423.94 328.105 423.94 327.595 423.94 C 326.395 423.94 325.205 424.23 324.145 424.79 C 323.005 425.4 322.035 426.33 321.365 427.44 C 320.725 428.49 320.405 429.68 320.335 430.9 C 320.335 430.99 320.325 431.09 320.325 431.18 C 320.325 431.84 320.325 432.51 320.325 433.17 C 320.325 433.93 320.325 434.68 320.325 435.44 C 320.325 435.85 320.325 436.26 320.325 436.68 C 320.325 437.61 320.325 438.54 320.325 439.48 C 320.325 440.04 320.325 440.6 320.325 441.16 C 320.565 441.16 320.795 441.16 321.025 441.16 C 321.905 441.16 322.775 441.16 323.655 441.16 C 324.245 441.16 324.825 441.16 325.415 441.16 C 325.665 441.16 325.905 441.16 326.155 441.16 C 326.295 441.16 326.465 441.19 326.615 441.16 C 326.665 441.15 326.645 441.16 326.645 441.1 C 326.645 441 326.645 440.89 326.645 440.79 C 326.645 439.9 326.645 439.01 326.645 438.12 C 326.645 437.38 326.645 436.64 326.645 435.9 C 326.645 435.25 326.645 434.6 326.645 433.95 C 326.645 433.28 326.645 432.61 326.645 431.94 C 326.645 431.82 326.645 431.7 326.645 431.57 C 326.645 431.38 326.635 431.17 326.675 430.98 C 326.755 430.56 327.115 430.28 327.535 430.26 C 327.675 430.25 327.825 430.26 327.975 430.26 C 328.605 430.26 329.245 430.26 329.885 430.26 C 330.705 430.26 331.535 430.26 332.355 430.26 C 333.035 430.26 333.705 430.26 334.375 430.26 C 335.045 430.26 335.715 430.26 336.375 430.26 C 336.675 430.26 336.975 430.25 337.265 430.24 C 337.795 430.21 338.315 430.11 338.825 429.97 C 340.405 429.55 341.825 428.48 342.755 427.15 C 343.565 425.98 344.035 424.55 344.035 423.12 C 344.035 422.66 344.035 422.2 344.035 421.74 C 344.035 420.84 344.035 419.95 344.035 419.06 C 344.035 418.04 344.035 417.02 344.035 416.01 C 344.035 415.17 344.035 414.34 344.045 413.51 C 344.045 413.16 344.045 412.81 344.045 412.46 C 343.955 412.46 343.875 412.46 343.795 412.46 Z M 320.615 427.67 C 320.765 427.64 320.845 427.5 320.855 427.36 C 320.865 427.2 320.855 427.04 320.855 426.89 C 320.855 426.69 320.825 426.41 320.565 426.41 C 320.285 426.41 320.285 426.73 320.285 426.93 C 320.285 427.1 320.245 427.32 320.305 427.48 C 320.355 427.6 320.485 427.7 320.615 427.67 Z M 324.265 422.58 C 324.125 422.31 323.785 422.4 323.735 422.68 C 323.705 422.82 323.725 422.98 323.725 423.12 C 323.725 423.31 323.775 423.57 324.015 423.57 C 324.275 423.57 324.305 423.28 324.305 423.09 C 324.305 422.93 324.335 422.73 324.265 422.58 Z M 321.435 425.81 C 321.435 426.18 322.005 426.18 322.005 425.81 C 322.005 425.44 321.435 425.44 321.435 425.81 Z M 320.515 426.15 C 320.725 426.19 320.855 425.98 320.855 425.8 C 320.855 425.76 320.855 425.72 320.855 425.67 C 320.855 425.17 320.855 424.67 320.855 424.17 C 320.855 424 320.855 423.83 320.855 423.66 C 320.855 423.52 320.905 423.35 321.045 423.28 C 321.255 423.19 321.405 423.41 321.425 423.59 C 321.455 423.78 321.435 423.99 321.435 424.18 C 321.435 424.38 321.435 424.58 321.435 424.78 C 321.435 424.93 321.425 425.1 321.555 425.21 C 321.715 425.34 321.915 425.24 321.985 425.06 C 322.015 424.97 322.005 424.87 322.005 424.77 C 322.005 424.63 322.005 424.49 322.005 424.35 C 322.005 423.55 321.995 422.74 322.005 421.94 C 322.005 421.81 322.035 421.68 322.135 421.59 C 322.295 421.45 322.485 421.57 322.545 421.74 C 322.615 421.93 322.575 422.18 322.575 422.37 C 322.575 422.62 322.575 422.86 322.575 423.11 C 322.575 423.28 322.545 423.51 322.615 423.67 C 322.695 423.84 322.905 423.92 323.055 423.77 C 323.135 423.69 323.155 423.58 323.155 423.47 C 323.155 423.26 323.155 423.05 323.155 422.84 C 323.155 422.43 323.155 422.02 323.155 421.61 C 323.155 421.46 323.135 421.3 323.215 421.17 C 323.315 420.99 323.535 420.97 323.655 421.14 C 323.785 421.33 323.725 421.64 323.725 421.85 C 323.725 422.02 323.815 422.24 324.015 422.24 C 324.215 422.24 324.305 422.02 324.305 421.85 C 324.305 421.63 324.245 421.3 324.415 421.12 C 324.555 420.97 324.755 421.05 324.835 421.23 C 324.895 421.35 324.875 421.48 324.875 421.61 C 324.885 421.8 325.025 422.01 325.245 421.94 C 325.395 421.89 325.445 421.74 325.455 421.59 C 325.455 421.18 325.455 420.77 325.455 420.36 C 325.455 420.2 325.475 420.01 325.625 419.92 C 325.815 419.81 325.985 420 326.015 420.18 C 326.055 420.36 326.025 420.58 326.025 420.76 C 326.025 420.99 326.015 421.22 326.025 421.45 C 326.035 421.61 326.115 421.79 326.285 421.8 C 326.485 421.83 326.595 421.62 326.605 421.45 C 326.625 420.69 326.605 419.93 326.605 419.17 C 326.605 418.49 326.605 417.82 326.605 417.14 C 326.605 416.02 326.605 414.89 326.605 413.77 C 326.605 413.4 326.605 413.04 326.605 412.68 C 326.605 412.64 326.625 412.5 326.605 412.47 C 326.575 412.44 326.405 412.46 326.365 412.46 C 325.495 412.46 324.615 412.46 323.745 412.46 C 322.885 412.46 322.025 412.46 321.165 412.46 C 320.875 412.46 320.575 412.46 320.285 412.46 C 320.285 413.18 320.285 413.9 320.285 414.61 C 320.285 415.64 320.285 416.67 320.285 417.7 C 320.285 418.13 320.285 418.56 320.285 418.98 C 320.285 420.09 320.285 421.19 320.285 422.3 C 320.285 422.96 320.285 423.62 320.285 424.28 C 320.285 424.72 320.285 425.15 320.285 425.59 C 320.285 425.79 320.255 426.09 320.515 426.15 Z M 324.875 420.37 C 324.875 420.74 324.305 420.74 324.305 420.37 C 324.305 420 324.875 420 324.875 420.37 Z M 321.435 422.6 C 321.435 422.97 320.855 422.97 320.855 422.6 C 320.855 422.23 321.435 422.23 321.435 422.6 Z M 326.315 423.63 C 326.685 423.63 326.685 423.06 326.315 423.06 C 325.945 423.06 325.945 423.63 326.315 423.63 Z M 325.305 423.78 C 325.435 423.69 325.455 423.54 325.455 423.4 C 325.455 423.16 325.455 422.91 325.455 422.66 C 325.455 422.58 325.455 422.49 325.445 422.42 C 325.405 422.24 325.225 422.08 325.045 422.18 C 324.825 422.3 324.875 422.62 324.875 422.83 C 324.875 423.05 324.875 423.26 324.875 423.48 C 324.875 423.7 325.095 423.93 325.305 423.78 Z M 326.315 422.05 C 325.915 422.05 325.915 422.87 326.315 422.87 C 326.705 422.87 326.705 422.05 326.315 422.05 Z M 322.965 424.11 C 322.845 424.06 322.715 424.11 322.645 424.22 C 322.545 424.35 322.575 424.55 322.575 424.71 C 322.575 425 322.925 425.2 323.105 424.91 C 323.175 424.78 323.155 424.58 323.155 424.44 C 323.145 424.31 323.095 424.17 322.965 424.11 Z M 324.015 424.33 C 324.385 424.33 324.385 423.76 324.015 423.76 C 323.645 423.76 323.645 424.33 324.015 424.33 Z M 343.655 426.62 C 343.515 426.65 343.435 426.79 343.415 426.92 C 343.405 427.08 343.415 427.24 343.415 427.4 C 343.415 427.59 343.445 427.88 343.705 427.88 C 343.985 427.88 343.995 427.56 343.995 427.35 C 343.995 427.19 344.025 426.97 343.965 426.81 C 343.915 426.68 343.795 426.59 343.655 426.62 Z M 339.975 431.33 C 339.975 431.51 339.945 431.72 340.125 431.83 C 340.375 431.99 340.545 431.7 340.545 431.48 C 340.545 431.33 340.555 431.18 340.545 431.03 C 340.525 430.77 340.215 430.59 340.035 430.84 C 339.945 430.98 339.975 431.17 339.975 431.33 Z M 342.845 428.47 C 342.845 428.1 342.265 428.1 342.265 428.47 C 342.265 428.84 342.845 428.84 342.845 428.47 Z M 343.995 440.22 C 343.995 439.16 343.995 438.09 343.995 437.02 C 343.995 436.6 343.995 436.17 343.995 435.74 C 343.995 434.74 343.995 433.73 343.995 432.73 C 343.995 431.91 343.995 431.09 343.995 430.27 C 343.995 430.03 343.995 429.79 343.995 429.55 C 343.995 429.28 343.995 429.02 343.995 428.75 C 343.995 428.55 344.035 428.28 343.825 428.17 C 343.655 428.07 343.465 428.21 343.425 428.39 C 343.415 428.45 343.415 428.51 343.415 428.57 C 343.415 428.77 343.415 428.96 343.415 429.15 C 343.415 429.63 343.415 430.1 343.415 430.58 C 343.415 430.66 343.415 430.74 343.385 430.82 C 343.305 431 343.105 431.1 342.955 430.94 C 342.805 430.78 342.845 430.51 342.845 430.3 C 342.845 430.07 342.845 429.84 342.845 429.61 C 342.845 429.39 342.865 428.98 342.535 429.02 C 342.225 429.05 342.265 429.45 342.265 429.67 C 342.265 429.83 342.265 430 342.265 430.16 C 342.265 430.6 342.265 431.05 342.265 431.49 C 342.265 431.72 342.265 431.96 342.265 432.19 C 342.265 432.38 342.285 432.61 342.095 432.73 C 341.925 432.83 341.755 432.67 341.715 432.5 C 341.695 432.42 341.695 432.34 341.695 432.26 C 341.695 432 341.695 431.74 341.695 431.48 C 341.695 431.32 341.695 431.17 341.695 431.01 C 341.695 430.9 341.715 430.77 341.675 430.66 C 341.625 430.48 341.425 430.36 341.265 430.48 C 341.095 430.6 341.125 430.82 341.125 431 C 341.125 431.26 341.125 431.52 341.125 431.78 C 341.125 432.15 341.145 432.54 341.115 432.91 C 341.105 433.08 340.985 433.31 340.785 433.26 C 340.605 433.22 340.545 433.02 340.545 432.86 C 340.545 432.65 340.605 432.32 340.465 432.15 C 340.335 431.99 340.115 432.04 340.015 432.21 C 339.965 432.31 339.975 432.43 339.975 432.55 C 339.975 432.65 339.975 432.75 339.975 432.86 C 339.965 433.03 339.865 433.27 339.655 433.25 C 339.465 433.23 339.405 433 339.395 432.84 C 339.395 432.7 339.415 432.55 339.315 432.43 C 339.185 432.28 338.975 432.31 338.875 432.47 C 338.825 432.57 338.825 432.67 338.825 432.77 C 338.825 433.18 338.835 433.59 338.825 434 C 338.815 434.17 338.735 434.4 338.535 434.4 C 338.335 434.4 338.255 434.17 338.245 434 C 338.245 433.82 338.245 433.63 338.245 433.45 C 338.245 433.24 338.255 433.04 338.245 432.83 C 338.245 432.68 338.175 432.52 338.015 432.48 C 337.815 432.44 337.675 432.65 337.675 432.82 C 337.675 433.59 337.675 434.35 337.675 435.11 C 337.675 435.77 337.675 436.42 337.675 437.08 C 337.675 438.15 337.675 439.22 337.675 440.29 C 337.675 440.57 337.675 440.85 337.675 441.13 C 337.675 441.2 337.685 441.18 337.755 441.18 C 337.955 441.18 338.145 441.18 338.345 441.18 C 339.095 441.18 339.845 441.18 340.595 441.18 C 341.535 441.18 342.475 441.18 343.415 441.18 C 343.585 441.18 343.745 441.18 343.905 441.18 C 343.975 441.18 343.985 441.2 343.995 441.15 C 344.005 441.04 343.995 440.93 343.995 440.82 C 343.995 440.62 343.995 440.42 343.995 440.22 Z M 339.395 433.91 C 339.395 433.54 339.975 433.54 339.975 433.91 C 339.975 434.28 339.395 434.28 339.395 433.91 Z M 342.845 431.68 C 342.845 431.31 343.415 431.31 343.415 431.68 C 343.415 432.06 342.845 432.06 342.845 431.68 Z M 337.965 430.65 C 337.595 430.65 337.595 431.23 337.965 431.23 C 338.335 431.23 338.335 430.65 337.965 430.65 Z M 339.395 430.81 C 339.395 430.62 339.255 430.41 339.045 430.47 C 338.875 430.52 338.825 430.7 338.825 430.85 C 338.825 431.07 338.825 431.3 338.825 431.52 C 338.825 431.74 338.785 432.14 339.115 432.14 C 339.455 432.14 339.395 431.68 339.395 431.45 C 339.395 431.24 339.405 431.02 339.395 430.81 Z M 337.965 432.23 C 338.355 432.23 338.355 431.42 337.965 431.42 C 337.565 431.42 337.565 432.23 337.965 432.23 Z M 341.405 430.19 C 341.665 430.19 341.695 429.91 341.695 429.72 C 341.695 429.52 341.675 429.23 341.405 429.23 C 341.165 429.23 341.125 429.5 341.125 429.68 C 341.125 429.88 341.135 430.19 341.405 430.19 Z M 340.545 430.24 C 340.545 429.87 339.975 429.87 339.975 430.24 C 339.975 430.61 340.545 430.61 340.545 430.24 Z" style="fill: rgb(255, 247, 72); white-space: pre;"/>
  <path d="M 348.937 431.29 C 349.247 431.29 349.227 430.93 349.227 430.71 C 349.227 430.47 349.237 430.24 349.227 430 C 349.227 429.85 349.157 429.69 349.007 429.65 C 348.797 429.59 348.657 429.8 348.657 429.98 C 348.647 430.18 348.657 430.38 348.657 430.58 C 348.657 430.81 348.587 431.29 348.937 431.29 Z M 350.377 429.41 C 350.377 429.04 349.807 429.04 349.807 429.41 C 349.807 429.78 350.377 429.78 350.377 429.41 Z M 370.947 430.22 C 371.427 429.44 371.777 428.55 371.927 427.64 C 372.027 427 372.067 426.36 372.067 425.71 C 372.067 424.95 372.067 424.19 372.067 423.43 C 372.037 422.44 371.927 421.47 371.657 420.51 C 371.367 419.47 370.917 418.47 370.327 417.56 C 369.187 415.8 367.537 414.38 365.617 413.52 C 364.697 413.12 363.717 412.82 362.727 412.7 C 362.137 412.62 361.557 412.59 360.967 412.59 C 360.347 412.59 359.737 412.58 359.127 412.64 C 357.997 412.75 356.877 413.03 355.817 413.46 C 353.897 414.25 352.197 415.58 350.957 417.24 C 349.727 418.89 348.977 420.83 348.727 422.87 C 348.617 423.77 348.657 424.69 348.657 425.6 C 348.657 426.45 348.657 427.31 348.657 428.17 C 348.657 428.4 348.657 428.64 348.657 428.88 C 348.657 428.97 348.647 429.07 348.677 429.16 C 348.727 429.35 348.957 429.46 349.117 429.31 C 349.267 429.17 349.227 428.92 349.227 428.73 C 349.227 428.45 349.227 428.17 349.227 427.88 C 349.227 427.69 349.187 427.43 349.307 427.26 C 349.427 427.09 349.637 427.11 349.737 427.29 C 349.797 427.39 349.807 427.5 349.807 427.61 C 349.807 427.88 349.807 428.14 349.807 428.41 C 349.807 428.51 349.797 428.6 349.847 428.7 C 349.927 428.88 350.157 428.93 350.297 428.76 C 350.397 428.64 350.377 428.46 350.377 428.3 C 350.377 428.06 350.377 427.83 350.377 427.59 C 350.377 427.06 350.377 426.52 350.377 425.98 C 350.377 425.82 350.357 425.65 350.437 425.51 C 350.537 425.33 350.757 425.31 350.877 425.48 C 350.967 425.61 350.947 425.78 350.947 425.93 C 350.947 426.14 350.947 426.35 350.947 426.57 C 350.947 426.64 350.947 426.72 350.947 426.8 C 350.957 426.98 351.077 427.19 351.287 427.15 C 351.567 427.09 351.527 426.75 351.527 426.54 C 351.527 426.27 351.527 425.99 351.527 425.71 C 351.527 425.56 351.517 425.39 351.527 425.24 C 351.527 425.07 351.637 424.79 351.857 424.85 C 352.037 424.9 352.097 425.15 352.097 425.3 C 352.117 425.76 352.097 426.22 352.097 426.67 C 352.097 426.83 352.067 427.04 352.127 427.2 C 352.187 427.39 352.417 427.48 352.577 427.32 C 352.667 427.23 352.677 427.11 352.677 426.99 C 352.677 426.75 352.677 426.5 352.677 426.26 C 352.677 426.04 352.627 425.74 352.787 425.57 C 352.937 425.41 353.137 425.51 353.217 425.69 C 353.267 425.82 353.247 425.97 353.247 426.1 C 353.247 426.27 353.317 426.47 353.507 426.49 C 353.707 426.51 353.817 426.31 353.827 426.14 C 353.837 425.7 353.827 425.25 353.827 424.8 C 353.827 424.7 353.827 424.6 353.867 424.51 C 353.957 424.33 354.167 424.27 354.307 424.44 C 354.417 424.57 354.397 424.74 354.397 424.9 C 354.407 425.08 354.527 425.29 354.737 425.25 C 355.047 425.18 354.977 424.73 354.977 424.5 C 354.977 424.33 354.977 424.15 354.977 423.98 C 354.997 423.12 355.257 422.27 355.687 421.53 C 356.187 420.68 356.917 419.97 357.797 419.51 C 358.577 419.1 359.437 418.91 360.317 418.91 C 360.857 418.91 361.407 418.88 361.927 418.97 C 362.997 419.14 363.977 419.7 364.677 420.53 C 365.337 421.31 365.717 422.31 365.737 423.34 C 365.747 423.7 365.747 424.06 365.747 424.42 C 365.747 424.86 365.747 425.29 365.747 425.72 C 365.747 425.97 365.747 426.22 365.717 426.47 C 365.657 426.88 365.417 427.18 365.057 427.4 C 364.637 427.67 364.137 427.82 363.647 427.93 C 363.177 428.03 362.697 428.08 362.217 428.09 C 361.977 428.09 361.737 428.09 361.497 428.09 C 360.397 428.09 359.307 428.09 358.207 428.09 C 357.547 428.09 356.887 428.09 356.227 428.09 C 355.847 428.09 355.467 428.08 355.087 428.09 C 354.087 428.14 353.117 428.36 352.227 428.82 C 350.357 429.79 349.037 431.63 348.727 433.72 C 348.597 434.61 348.657 435.52 348.657 436.42 C 348.657 437.16 348.657 437.91 348.657 438.65 C 348.657 439.22 348.657 439.78 348.657 440.34 C 348.657 440.53 348.657 440.73 348.657 440.93 C 348.657 440.99 348.657 441.04 348.657 441.1 C 348.657 441.11 348.647 441.17 348.657 441.18 C 348.667 441.19 348.707 441.18 348.727 441.18 C 348.807 441.18 348.887 441.18 348.977 441.18 C 349.247 441.18 349.517 441.18 349.797 441.18 C 350.177 441.18 350.567 441.18 350.957 441.18 C 351.797 441.18 352.627 441.18 353.457 441.18 C 353.927 441.18 354.387 441.18 354.857 441.18 C 354.877 441.18 354.957 441.2 354.967 441.18 C 354.977 441.18 354.967 441.17 354.977 441.15 C 354.997 441.05 354.977 440.91 354.977 440.8 C 354.977 439.72 354.977 438.65 354.977 437.57 C 354.977 436.86 354.977 436.15 354.977 435.43 C 354.977 435.26 354.977 435.09 354.977 434.91 C 354.977 434.83 354.967 434.75 354.977 434.67 C 354.997 434.5 355.117 434.41 355.277 434.41 C 355.637 434.39 355.997 434.41 356.357 434.41 C 357.067 434.41 357.787 434.41 358.497 434.41 C 359.567 434.41 360.637 434.41 361.717 434.41 C 361.967 434.41 362.227 434.41 362.477 434.4 C 363.577 434.38 364.677 434.21 365.737 433.92 C 367.837 433.33 369.797 432.12 370.947 430.22 Z M 349.517 426.76 C 349.147 426.76 349.147 426.19 349.517 426.19 C 349.887 426.19 349.887 426.76 349.517 426.76 Z M 352.967 425.11 C 352.597 425.11 352.597 424.53 352.967 424.53 C 353.337 424.53 353.337 425.11 352.967 425.11 Z M 354.687 427.61 C 355.057 427.61 355.057 427.04 354.687 427.04 C 354.317 427.04 354.317 427.61 354.687 427.61 Z M 353.827 427.44 C 353.827 427.31 353.827 427.18 353.827 427.05 C 353.827 426.86 353.687 426.61 353.447 426.7 C 353.267 426.77 353.247 426.97 353.247 427.14 C 353.247 427.29 353.217 427.48 353.297 427.62 C 353.457 427.93 353.827 427.73 353.827 427.44 Z M 354.977 425.85 C 354.967 425.7 354.897 425.54 354.737 425.51 C 354.587 425.47 354.457 425.59 354.417 425.73 C 354.367 425.88 354.397 426.1 354.397 426.26 C 354.397 426.47 354.377 426.85 354.687 426.85 C 354.967 426.85 354.977 426.54 354.977 426.33 C 354.977 426.17 354.977 426.01 354.977 425.85 Z M 351.217 428.74 C 351.407 428.76 351.527 428.56 351.527 428.39 C 351.527 428.23 351.527 428.06 351.527 427.9 C 351.527 427.7 351.517 427.4 351.247 427.39 C 350.987 427.38 350.947 427.67 350.947 427.86 C 350.947 428.04 350.947 428.22 350.947 428.39 C 350.957 428.55 351.047 428.72 351.217 428.74 Z M 352.677 427.88 C 352.677 427.51 352.097 427.51 352.097 427.88 C 352.097 428.25 352.677 428.25 352.677 427.88 Z M 371.777 430.12 C 371.467 430.12 371.487 430.49 371.487 430.7 C 371.487 430.94 371.487 431.18 371.487 431.41 C 371.487 431.56 371.557 431.72 371.707 431.76 C 371.917 431.82 372.057 431.61 372.067 431.43 C 372.067 431.23 372.067 431.03 372.067 430.83 C 372.067 430.6 372.127 430.12 371.777 430.12 Z M 370.337 432 C 370.337 432.37 370.917 432.37 370.917 432 C 370.917 431.63 370.337 431.63 370.337 432 Z M 372.067 441.06 C 372.067 441 372.067 440.94 372.067 440.87 C 372.067 440.07 372.067 439.26 372.067 438.45 C 372.067 438.03 372.067 437.61 372.067 437.19 C 372.067 436.3 372.067 435.4 372.067 434.51 C 372.067 434.04 372.067 433.58 372.067 433.11 C 372.067 432.91 372.067 432.7 372.067 432.49 C 372.067 432.3 372.027 432.03 371.777 432.03 C 371.537 432.03 371.487 432.28 371.487 432.47 C 371.487 432.65 371.487 432.83 371.487 433.01 C 371.487 433.22 371.487 433.44 371.487 433.66 C 371.487 433.81 371.507 433.98 371.437 434.11 C 371.367 434.24 371.217 434.33 371.087 434.24 C 370.957 434.17 370.917 434.02 370.917 433.88 C 370.907 433.71 370.917 433.54 370.917 433.37 C 370.917 433.21 370.917 433.05 370.917 432.89 C 370.907 432.75 370.837 432.6 370.687 432.56 C 370.537 432.51 370.397 432.63 370.357 432.77 C 370.327 432.86 370.337 432.97 370.337 433.06 C 370.337 433.23 370.337 433.4 370.337 433.57 C 370.337 434.02 370.337 434.47 370.337 434.92 C 370.337 435.17 370.347 435.42 370.337 435.67 C 370.337 435.82 370.267 436.01 370.097 436.05 C 369.947 436.09 369.827 435.95 369.787 435.81 C 369.737 435.66 369.767 435.49 369.767 435.33 C 369.767 435.13 369.767 434.94 369.767 434.74 C 369.767 434.65 369.757 434.56 369.717 434.47 C 369.637 434.34 369.467 434.28 369.337 434.37 C 369.177 434.48 369.187 434.66 369.187 434.83 C 369.187 435.04 369.187 435.25 369.187 435.46 C 369.187 435.76 369.197 436.07 369.187 436.37 C 369.187 436.52 369.117 436.72 368.957 436.75 C 368.797 436.79 368.697 436.63 368.647 436.5 C 368.607 436.37 368.617 436.22 368.617 436.09 C 368.617 435.66 368.617 435.24 368.617 434.81 C 368.617 434.68 368.637 434.53 368.567 434.41 C 368.487 434.27 368.317 434.22 368.187 434.31 C 368.067 434.39 368.047 434.52 368.037 434.65 C 368.037 435.01 368.037 435.36 368.037 435.72 C 368.037 435.9 368.047 436.15 367.837 436.23 C 367.687 436.29 367.557 436.18 367.507 436.05 C 367.457 435.94 367.467 435.83 367.467 435.72 C 367.457 435.57 367.377 435.4 367.217 435.37 C 367.057 435.35 366.937 435.48 366.907 435.62 C 366.877 435.75 366.897 435.89 366.897 436.02 C 366.897 436.4 366.897 436.79 366.897 437.18 C 366.887 437.28 366.877 437.38 366.817 437.46 C 366.727 437.59 366.567 437.63 366.447 437.52 C 366.277 437.37 366.317 437.1 366.317 436.89 C 366.317 436.69 366.357 436.4 366.117 436.3 C 365.967 436.25 365.827 436.35 365.767 436.48 C 365.737 436.58 365.747 436.7 365.747 436.8 C 365.747 437.4 365.747 438 365.747 438.6 C 365.747 439.34 365.747 440.07 365.747 440.81 C 365.747 440.88 365.747 440.95 365.747 441.03 C 365.747 441.06 365.737 441.12 365.747 441.16 C 365.747 441.18 365.737 441.17 365.757 441.19 C 365.767 441.2 365.847 441.19 365.867 441.19 C 366.257 441.19 366.657 441.19 367.047 441.19 C 367.587 441.19 368.127 441.19 368.677 441.19 C 369.437 441.19 370.197 441.19 370.967 441.19 C 371.297 441.19 371.627 441.19 371.957 441.19 C 371.997 441.19 372.047 441.2 372.067 441.17 C 372.077 441.15 372.067 441.09 372.067 441.06 Z M 367.757 437.26 C 367.387 437.26 367.387 436.69 367.757 436.69 C 368.127 436.69 368.127 437.26 367.757 437.26 Z M 371.197 435.23 C 370.827 435.23 370.827 434.65 371.197 434.65 C 371.567 434.65 371.567 435.23 371.197 435.23 Z M 365.747 434.75 C 365.747 435.12 366.317 435.12 366.317 434.75 C 366.317 434.38 365.747 434.38 365.747 434.75 Z M 366.947 434.22 C 366.867 434.36 366.897 434.54 366.897 434.68 C 366.897 434.88 366.907 435.18 367.177 435.18 C 367.397 435.18 367.467 434.95 367.467 434.77 C 367.467 434.63 367.487 434.46 367.457 434.32 C 367.387 434.07 367.087 433.99 366.947 434.22 Z M 366.057 435.23 C 365.837 435.2 365.737 435.44 365.747 435.62 C 365.747 435.79 365.797 436.01 366.007 436.04 C 366.227 436.06 366.317 435.83 366.317 435.65 C 366.317 435.47 366.267 435.25 366.057 435.23 Z M 369.477 434.09 C 369.737 434.09 369.767 433.8 369.767 433.6 C 369.767 433.43 369.767 433.26 369.767 433.08 C 369.757 432.94 369.687 432.78 369.527 432.74 C 369.377 432.71 369.247 432.83 369.207 432.96 C 369.157 433.12 369.187 433.33 369.187 433.5 C 369.187 433.71 369.167 434.09 369.477 434.09 Z M 368.037 433.79 C 368.037 434.16 368.617 434.16 368.617 433.79 C 368.617 433.42 368.037 433.42 368.037 433.79 Z M 376.94 439.53 C 376.63 439.53 376.65 439.9 376.65 440.11 C 376.65 440.35 376.65 440.59 376.65 440.82 C 376.66 440.97 376.72 441.13 376.88 441.18 C 377.09 441.23 377.22 441.02 377.23 440.84 C 377.24 440.64 377.23 440.44 377.23 440.24 C 377.23 440.01 377.29 439.53 376.94 439.53 Z M 380.39 438.88 C 380.1 438.88 380.1 439.22 380.1 439.42 C 380.1 439.64 380.09 439.85 380.1 440.07 C 380.11 440.21 380.17 440.37 380.32 440.41 C 380.51 440.46 380.65 440.29 380.67 440.12 C 380.69 439.93 380.68 439.74 380.68 439.55 C 380.68 439.33 380.73 438.88 380.39 438.88 Z M 378.09 440.61 C 377.72 440.61 377.72 441.18 378.09 441.18 C 378.46 441.18 378.46 440.61 378.09 440.61 Z M 382.4 436.69 C 382.4 436.92 382.4 437.14 382.4 437.37 C 382.4 437.58 382.4 437.78 382.4 437.99 C 382.4 438.07 382.4 438.14 382.43 438.2 C 382.49 438.36 382.66 438.46 382.82 438.36 C 383.03 438.23 382.97 437.91 382.97 437.71 C 382.97 437.53 382.97 437.36 382.97 437.19 C 382.97 436.98 382.97 436.78 382.97 436.57 C 382.97 436.14 382.97 435.71 382.97 435.27 C 382.97 434.6 382.97 433.92 382.97 433.25 C 382.97 432.39 382.97 431.54 382.97 430.69 C 382.97 429.71 382.97 428.74 382.97 427.77 C 382.97 426.73 382.97 425.7 382.97 424.67 C 382.97 423.64 383.029 421.118 383.029 420.642 C 383.029 420.222 382.345 421.361 379.855 421.305 C 377.803 421.259 376.613 420.33 376.613 420.46 C 376.613 420.93 376.65 421.12 376.65 422.11 C 376.65 423.14 376.65 424.18 376.65 425.21 C 376.65 426.24 376.65 427.27 376.65 428.3 C 376.65 429.26 376.65 430.22 376.65 431.19 C 376.65 432.03 376.65 432.87 376.65 433.71 C 376.65 434.37 376.65 435.03 376.65 435.68 C 376.65 436.1 376.65 436.52 376.65 436.94 C 376.65 437.16 376.65 437.38 376.65 437.61 C 376.65 437.99 376.65 438.38 376.65 438.76 C 376.65 438.96 376.65 439.22 376.89 439.27 C 377.16 439.33 377.23 439.03 377.23 438.83 C 377.23 438.39 377.23 437.96 377.23 437.53 C 377.23 437.34 377.21 437.11 377.4 437 C 377.55 436.91 377.71 437.02 377.77 437.17 C 377.8 437.25 377.8 437.33 377.8 437.42 C 377.8 438.16 377.8 438.89 377.8 439.63 C 377.8 439.81 377.76 440.06 377.86 440.22 C 377.96 440.37 378.15 440.4 378.27 440.27 C 378.35 440.2 378.38 440.09 378.38 439.99 C 378.38 439.56 378.38 439.14 378.38 438.72 C 378.38 438.01 378.38 437.3 378.38 436.59 C 378.38 436.42 378.36 436.24 378.48 436.11 C 378.6 435.97 378.78 436 378.88 436.14 C 378.93 436.22 378.95 436.32 378.95 436.42 C 378.96 436.8 378.95 437.18 378.95 437.55 C 378.95 437.97 378.95 438.39 378.95 438.81 C 378.95 438.93 378.95 439.05 378.95 439.17 C 378.95 439.29 378.96 439.41 379.04 439.51 C 379.17 439.64 379.36 439.62 379.46 439.47 C 379.54 439.36 379.53 439.22 379.53 439.08 C 379.53 438.89 379.53 438.7 379.53 438.51 C 379.53 438.02 379.53 437.53 379.53 437.04 C 379.53 436.92 379.53 436.79 379.53 436.67 C 379.53 436.49 379.5 436.27 379.62 436.12 C 379.73 435.97 379.92 435.99 380.02 436.14 C 380.08 436.23 380.1 436.33 380.1 436.43 C 380.1 436.59 380.1 436.76 380.1 436.92 C 380.1 437.36 380.1 437.8 380.1 438.24 C 380.1 438.43 380.13 438.68 380.36 438.7 C 380.66 438.73 380.68 438.39 380.68 438.19 C 380.68 437.98 380.67 437.77 380.68 437.56 C 380.68 437.42 380.73 437.25 380.87 437.19 C 381.04 437.11 381.18 437.26 381.23 437.41 C 381.28 437.58 381.25 437.79 381.25 437.97 C 381.25 438.17 381.24 438.37 381.25 438.58 C 381.25 438.7 381.3 438.83 381.41 438.9 C 381.58 439 381.75 438.87 381.81 438.71 C 381.83 438.63 381.82 438.55 381.82 438.48 C 381.82 438.36 381.82 438.24 381.82 438.12 C 381.82 437.8 381.82 437.47 381.82 437.15 C 381.82 436.93 381.82 436.72 381.82 436.51 C 381.82 436.4 381.84 436.3 381.9 436.2 C 382 436.06 382.18 436.04 382.3 436.17 C 382.42 436.32 382.4 436.52 382.4 436.69 Z M 377.52 436.59 C 377.14 436.59 377.14 436.01 377.52 436.01 C 377.89 436.01 377.89 436.59 377.52 436.59 Z M 380.96 436.6 C 380.59 436.6 380.59 436.02 380.96 436.02 C 381.33 436.02 381.33 436.6 380.96 436.6 Z M 382.69 440.61 C 382.32 440.61 382.32 441.18 382.69 441.18 C 383.06 441.18 383.06 440.61 382.69 440.61 Z M 381.54 439.13 C 381.19 439.13 381.25 439.61 381.25 439.84 C 381.25 440.16 381.25 440.47 381.25 440.79 C 381.25 440.94 381.29 441.11 381.45 441.17 C 381.69 441.26 381.82 440.99 381.82 440.79 C 381.83 440.53 381.82 440.27 381.82 440.01 C 381.82 439.77 381.92 439.13 381.54 439.13 Z M 382.69 438.65 C 382.37 438.65 382.4 439.05 382.4 439.27 C 382.4 439.53 382.4 439.79 382.4 440.05 C 382.4 440.19 382.46 440.36 382.61 440.41 C 382.83 440.48 382.97 440.25 382.97 440.07 C 382.98 439.85 382.97 439.63 382.97 439.42 C 382.97 439.18 383.05 438.65 382.69 438.65 Z M 379.24 439.84 C 378.98 439.84 378.95 440.13 378.95 440.32 C 378.95 440.49 378.95 440.67 378.95 440.84 C 378.96 440.98 379.03 441.15 379.19 441.18 C 379.34 441.21 379.47 441.1 379.51 440.96 C 379.56 440.8 379.53 440.59 379.53 440.42 C 379.53 440.21 379.55 439.84 379.24 439.84 Z M 380.39 440.61 C 380.02 440.61 380.02 441.18 380.39 441.18 C 380.76 441.18 380.76 440.61 380.39 440.61 Z" style="fill: rgb(255, 255, 255); white-space: pre;"/>
  <path d="M 380.001 410.733 L 383.017 419.476 C 383.017 419.476 381.428 420.429 379.82 420.383 C 378.171 420.336 376.705 419.508 376.705 419.508 L 380.001 410.733 Z" style="fill: rgb(255, 252, 252); stroke-width: 2px;" transform="matrix(0.999924, 0.012365, -0.012365, 0.999924, 5.167424, -4.665211)"/>
</svg>